<svg width="50" height="50" viewBox="0 0 50 50" fill="none" xmlns="http://www.w3.org/2000/svg">
<path d="M46.4286 3.125H3.56027C1.59598 3.125 0 4.54102 0 6.2793V43.7207C0 45.459 1.59598 46.875 3.56027 46.875H46.4286C48.3929 46.875 50 45.459 50 43.7207V6.2793C50 4.54102 48.3929 3.125 46.4286 3.125ZM15.1116 40.625H7.70089V19.7461H15.1228V40.625H15.1116ZM11.4062 16.8945C9.02902 16.8945 7.10938 15.2051 7.10938 13.1348C7.10938 11.0645 9.02902 9.375 11.4062 9.375C13.7723 9.375 15.7031 11.0645 15.7031 13.1348C15.7031 15.2148 13.7835 16.8945 11.4062 16.8945ZM42.8906 40.625H35.4799V30.4688C35.4799 28.0469 35.4241 24.9316 31.6295 24.9316C27.7679 24.9316 27.1763 27.5684 27.1763 30.293V40.625H19.7656V19.7461H26.875V22.5977H26.9754C27.9688 20.957 30.3906 19.2285 33.9955 19.2285C41.4955 19.2285 42.8906 23.5547 42.8906 29.1797V40.625Z" fill="white"/>
</svg>
